<?xml version="1.0" ?><svg data-name="Layer 1" id="Layer_1" viewBox="0 0 512 512" xmlns="http://www.w3.org/2000/svg"><path d="M461.94,444.35H425.76v-174h36.18a5.38,5.38,0,1,0,0-10.76H420.37a5.38,5.38,0,0,0-5.38,5.38v68.22h-12.4c-32.82-32.21-72.69-47.25-106.44-54.87L296,264.44a95.66,95.66,0,0,0-69.17-91.38A61.2,61.2,0,0,0,200,56.89h-.27a61.2,61.2,0,0,0-26.18,116.39,95.64,95.64,0,0,0-68.42,92l.14,23.53c-2.23-1.18-4.33-2.29-6.28-3.3-17-8.86-34.14-6.71-48.2,6.09a18.67,18.67,0,0,0-6.08,14.22,19.18,19.18,0,0,0,6.89,14.34L181.51,428.39a68.35,68.35,0,0,0,44,16c2,0,4.1-.1,6.16-.28l143.72-12.68H415v18.34a5.38,5.38,0,0,0,5.38,5.38h41.57a5.38,5.38,0,1,0,0-10.76Zm-312.41-326a50.5,50.5,0,0,1,50.23-50.65H200a50.44,50.44,0,0,1,.19,100.88H200A50.49,50.49,0,0,1,149.53,118.3ZM115.86,265.18a84.81,84.81,0,0,1,84.36-85h.35a84.8,84.8,0,0,1,84.68,84.37l.11,11.53c-16.22-3.07-30.54-4.54-41.27-5.64l-4.16-.43c-13.18-1.38-24.57,1.86-34,9.62A21.37,21.37,0,0,0,209.71,315c18.16,9.41,34.38,18,45.4,23.84l-48.41,6.27c-9.28-5.26-57.6-32.62-90.67-50.53Zm259,155.47-144.21,12.7a57.59,57.59,0,0,1-42.25-13.23L58.47,311.84a8.39,8.39,0,0,1-3-6.3,7.8,7.8,0,0,1,2.55-6c10.81-9.83,22.92-11.31,36-4.52,32.44,16.89,108.18,59.91,108.94,60.34a5.51,5.51,0,0,0,3.35.66l65.14-8.44L304,365.33a5.38,5.38,0,0,0,5.16-9.45l-34.07-18.6,0,0h0s-26.89-14.5-60.35-31.84a10.44,10.44,0,0,1-5.65-8.33,10.28,10.28,0,0,1,3.72-9.18c7.14-5.87,15.89-8.34,26.07-7.24l4.19.44c33.51,3.43,103.22,10.59,153.56,61.22a5.4,5.4,0,0,0,3.81,1.59H415v76.71Z"/></svg>