<?xml version="1.0" ?><!DOCTYPE svg  PUBLIC '-//W3C//DTD SVG 1.1//EN'  'http://www.w3.org/Graphics/SVG/1.1/DTD/svg11.dtd'><svg height="8.4666mm" style="shape-rendering:geometricPrecision; text-rendering:geometricPrecision; image-rendering:optimizeQuality; fill-rule:evenodd; clip-rule:evenodd" version="1.1" viewBox="0 0 846.66 846.66" width="8.4666mm" xml:space="preserve" xmlns="http://www.w3.org/2000/svg" xmlns:xlink="http://www.w3.org/1999/xlink"><defs><style type="text/css">
   <![CDATA[
    .fil0 {fill:black;fill-rule:nonzero}
   ]]>
  </style></defs><g id="Layer_x0020_1"><path class="fil0" d="M372.63 8.85c168.39,0 304.9,136.51 304.9,304.9 0,69.76 -23.43,134.05 -62.85,185.43l160.42 225.76c6.62,9.3 4.45,22.21 -4.86,28.83l-112.85 80.19c-9.3,6.62 -22.21,4.45 -28.83,-4.86l-160.4 -225.73c-30.05,9.91 -62.16,15.27 -95.53,15.27 -168.39,0 -304.9,-136.51 -304.9,-304.89 0,-168.39 136.51,-304.9 304.9,-304.9zm-62.52 335.35c-27.27,0 -27.27,-41.46 0,-41.46l125.04 0c27.27,0 27.27,41.46 0,41.46l-125.04 0zm0 56.96c-27.27,0 -27.27,-41.46 0,-41.46l125.04 0c27.27,0 27.27,41.46 0,41.46l-125.04 0zm112.64 -160.25l0 -34.95 -100.25 0 0 34.95 100.25 0zm-141.71 0l0 -55.68c0,-11.45 9.28,-20.73 20.73,-20.73l141.71 0c11.45,0 20.74,9.28 20.74,20.73l0 55.68 62.62 0c11.45,0 20.74,9.28 20.74,20.73l0 180.62c0,11.45 -9.29,20.73 -20.74,20.73l-308.43 0c-11.45,0 -20.73,-9.28 -20.73,-20.73l0 -180.62c0,-11.45 9.28,-20.73 20.73,-20.73l62.63 0zm225.07 41.47c-88.99,0 -177.98,0 -266.97,0l0 139.14 266.97 0 0 -139.14zm80.45 248.61c-23.08,22.72 -49.76,41.8 -79.11,56.29l142.84 201.01 79.14 -56.24 -142.87 -201.06zm-213.93 -480.68c-145.49,0 -263.43,117.94 -263.43,263.44 0,145.49 117.94,263.43 263.43,263.43 145.49,0 263.43,-117.95 263.43,-263.43 0,-145.49 -117.94,-263.44 -263.43,-263.44z"/></g></svg>