<svg xmlns="http://www.w3.org/2000/svg" width="103.734" height="103.734" viewBox="0 0 103.734 103.734">
  <g id="Layer_2" data-name="Layer 2" transform="translate(-1 -1)">
    <path id="Path_98" data-name="Path 98" d="M104.734,52.867A51.867,51.867,0,1,1,52.867,1a51.867,51.867,0,0,1,51.867,51.867Zm-96.819,0A44.952,44.952,0,1,0,52.867,7.916,44.952,44.952,0,0,0,7.916,52.867Z" fill="#fcc122"/>
    <path id="Path_99" data-name="Path 99" d="M39.614,14.59,20.319,33.919,39.614,53.249a3.458,3.458,0,0,1,0,4.876h0a3.458,3.458,0,0,1-4.876,0L12.747,36.132a3.147,3.147,0,0,1,0-4.426L34.738,9.715a3.458,3.458,0,0,1,4.876,0h0A3.458,3.458,0,0,1,39.614,14.59Z" transform="translate(26.635 18.948)" fill="#fcc122"/>
  </g>
</svg>
