<svg xmlns="http://www.w3.org/2000/svg" width="250" height="250" viewBox="0 0 250 250">
  <g id="Group_25" data-name="Group 25" transform="translate(-1488 -310)">
    <g id="Rectangle_84" data-name="Rectangle 84" transform="translate(1488 310)" fill="#21364a" stroke="#fcc122" stroke-width="3">
      <rect width="250" height="250" rx="45" stroke="none"/>
      <rect x="1.5" y="1.5" width="247" height="247" rx="43.5" fill="none"/>
    </g>
    <g id="Layer_x0020_1" transform="translate(1464.74 336.6)">
      <path id="Path_29" data-name="Path 29" d="M148.31,51.133a14.939,14.939,0,0,1,14.9,14.9v6.919a3.126,3.126,0,0,1-3.126,3.126H136.532a3.126,3.126,0,0,1-3.126-3.126V66.037a14.94,14.94,0,0,1,14.9-14.9ZM120.756,89.967c-4.111,0-4.111-6.251,0-6.251h55.109c4.111,0,4.111,6.251,0,6.251Zm0,26.9c-4.111,0-4.111-6.25,0-6.25h55.109c4.111,0,4.111,6.25,0,6.25Zm0-13.448c-4.111,0-4.111-6.251,0-6.251h55.109c4.111,0,4.111,6.251,0,6.251ZM102.385,10.4h70.528a3.115,3.115,0,0,1,2.21.916l21.322,21.322a3.117,3.117,0,0,1,.916,2.21v97.427a3.126,3.126,0,0,1-3.126,3.126h-91.85a3.126,3.126,0,0,1-3.126-3.126V13.526a3.126,3.126,0,0,1,3.126-3.126Zm69.234,6.25h-66.11v112.5h85.6V36.141ZM148.31,25.325a12.6,12.6,0,1,1-12.6,12.6A12.6,12.6,0,0,1,148.31,25.325Zm0,6.251a6.351,6.351,0,1,0,6.351,6.351A6.35,6.35,0,0,0,148.31,31.576Zm0,25.806a8.689,8.689,0,0,0-8.655,8.655v3.795h17.309V66.037A8.689,8.689,0,0,0,148.31,57.383Z" transform="translate(0 0)" fill="#fcc122"/>
    </g>
    <text id="Download_Resume" data-name="Download Resume" transform="translate(1524 519)" fill="#fcc122" font-size="21" font-family="SegoeUI-Semibold, Segoe UI" font-weight="600"><tspan x="0" y="0">Download Resume</tspan></text>
  </g>
</svg>
