<svg xmlns="http://www.w3.org/2000/svg" width="514" height="514" viewBox="0 0 514 514">
  <g id="Group_3" data-name="Group 3" transform="translate(-1185 -282)">
    <g id="Ellipse_1" data-name="Ellipse 1" transform="translate(1185 282)" fill="none" stroke="#fcc122" stroke-width="5" stroke-dasharray="23">
      <circle cx="257" cy="257" r="257" stroke="none"/>
      <circle cx="257" cy="257" r="254.5" fill="none"/>
    </g>
    <g id="Group_2" data-name="Group 2">
      <g id="_7107784_recruitment_performance_employment_development_growth_icon" data-name="7107784_recruitment_performance_employment_development_growth_icon" transform="translate(1228.93 311.1)">
        <path id="Path_2" data-name="Path 2" d="M163.751,443.34H45.609a1.539,1.539,0,0,0,0,3.077H163.751a1.539,1.539,0,0,0,0-3.077Z" transform="translate(0 -275.209)" fill="#fcc122" stroke="#fcc122" stroke-width="2"/>
        <path id="Path_3" data-name="Path 3" d="M329.5,123.932h0a1.542,1.542,0,0,0,1.536-1.541l-.037-23.165A16.121,16.121,0,0,1,347.05,83.044h.066a16.116,16.116,0,0,1,16.115,16.047l.034,23.165a1.539,1.539,0,0,0,1.539,1.539h0a1.539,1.539,0,0,0,1.533-1.541L366.3,99.088a19.178,19.178,0,0,0-12.827-18.017A12.478,12.478,0,0,0,347,57.9h-.051a12.489,12.489,0,0,0-6.372,23.194A19.233,19.233,0,0,0,327.92,99.225l.037,23.165a1.539,1.539,0,0,0,1.539,1.541Zm8.1-53.511a9.418,9.418,0,0,1,9.369-9.438H347a9.4,9.4,0,1,1,.037,18.807,9.18,9.18,0,0,1-6.658-2.725,9.335,9.335,0,0,1-2.783-6.644Z" transform="translate(-202.672)" fill="#fcc122" stroke="#fcc122" stroke-width="2"/>
        <path id="Path_4" data-name="Path 4" d="M357.46,204.317v56.937a1.541,1.541,0,0,0,3.08,0V204.317a1.541,1.541,0,0,0-3.08,0Z" transform="translate(-223.764 -103.49)" fill="#fcc122" stroke="#fcc122" stroke-width="2"/>
        <path id="Path_5" data-name="Path 5" d="M422,204.159V261.1a1.539,1.539,0,1,0,3.077,0V204.159a1.539,1.539,0,1,0-3.077,0Z" transform="translate(-269.846 -103.332)" fill="#fcc122" stroke="#fcc122" stroke-width="2"/>
        <path id="Path_6" data-name="Path 6" d="M51.254,331.407a1.527,1.527,0,0,0,1.087-.449l11.771-11.768V340.6a1.539,1.539,0,1,0,3.077,0V319.192l11.777,11.766a1.54,1.54,0,1,0,2.179-2.176L66.752,314.388a1.466,1.466,0,0,0-.352-.263h0l-.106-.051a.123.123,0,0,0-.034-.014l-.086-.031-.057-.02-.077-.02a.523.523,0,0,0-.072-.017h-.495l-.112.017h-.04l-.106.029h-.034l-.109.04h-.026l-.109.054-.031.017-.094.057a.811.811,0,0,0-.094.071l-.023.014a1.431,1.431,0,0,0-.134.129L50.168,328.781a1.536,1.536,0,0,0,1.087,2.625Z" transform="translate(-4.03 -182.837)" fill="#fcc122" stroke="#fcc122" stroke-width="2"/>
        <path id="Path_7" data-name="Path 7" d="M191.435,214.692,203.2,202.926V257.55a1.539,1.539,0,0,0,3.077,0V202.926l11.766,11.766a1.54,1.54,0,0,0,2.179-2.176l-14.394-14.394a1.716,1.716,0,0,0-.134-.117,1.53,1.53,0,0,0-1.91,0,1.065,1.065,0,0,0-.134.117l-14.394,14.394a1.54,1.54,0,1,0,2.179,2.176Z" transform="translate(-103.343 -99.797)" fill="#fcc122" stroke="#fcc122" stroke-width="2"/>
      </g>
      <path id="_7107774_choose_employment_staff_decision_recruitment_icon" data-name="7107774_choose_employment_staff_decision_recruitment_icon" d="M172.1,175.2H161.055V122.067H172.1a1.643,1.643,0,1,0,0-3.285H159.409a1.643,1.643,0,0,0-1.643,1.643v20.83H153.98c-10.021-9.835-22.195-14.427-32.5-16.754l-.046-4.238a29.208,29.208,0,0,0-21.12-27.9A18.687,18.687,0,0,0,92.122,56.89H92.04a18.687,18.687,0,0,0-7.994,35.538,29.2,29.2,0,0,0-20.891,28.091L63.2,127.7c-.681-.36-1.322-.7-1.918-1.008a12.242,12.242,0,0,0-14.717,1.86,5.7,5.7,0,0,0-1.856,4.342,5.856,5.856,0,0,0,2.1,4.379l39.666,33.046a20.87,20.87,0,0,0,13.435,4.885c.611,0,1.252-.031,1.881-.085l43.883-3.872h12.094v5.6a1.643,1.643,0,0,0,1.643,1.643H172.1a1.643,1.643,0,1,0,0-3.285ZM76.712,75.656A15.419,15.419,0,0,1,92.049,60.191h.073a15.4,15.4,0,1,1,.058,30.8h-.058a15.416,15.416,0,0,1-15.41-15.352ZM66.431,120.488A25.9,25.9,0,0,1,92.189,94.535H92.3A25.892,25.892,0,0,1,118.152,120.3l.034,3.521c-4.953-.937-9.325-1.386-12.6-1.722l-1.27-.131A13.5,13.5,0,0,0,93.933,124.9a6.525,6.525,0,0,0,1.154,10.8c5.545,2.873,10.5,5.5,13.862,7.279l-14.781,1.914c-2.834-1.606-17.587-9.96-27.685-15.429Zm79.082,47.471-44.032,3.878a17.584,17.584,0,0,1-12.9-4.04L48.908,134.735a2.562,2.562,0,0,1-.916-1.924,2.382,2.382,0,0,1,.779-1.832c3.3-3,7-3.453,10.992-1.38,9.905,5.157,33.031,18.293,33.263,18.424a1.682,1.682,0,0,0,1.023.2l19.89-2.577,9.939,5.42a1.644,1.644,0,1,0,1.576-2.885l-10.4-5.679h0s-8.21-4.427-18.427-9.722a3.188,3.188,0,0,1-1.725-2.543,3.139,3.139,0,0,1,1.136-2.8,10.319,10.319,0,0,1,7.96-2.211l1.279.134c10.232,1.047,31.517,3.234,46.887,18.693a1.649,1.649,0,0,0,1.163.485h4.446v23.422Z" transform="translate(1482.295 385.11)" fill="#fcc122" stroke="#fcc122" stroke-width="2"/>
      <g id="Layer_x0020_1" transform="translate(1321.48 543.36)">
        <path id="Path_9" data-name="Path 9" d="M104.6,155.3c4.207,0,4.207,6.4,0,6.4H87.028v14.576a3.2,3.2,0,0,1-3.2,3.2H56.383a3.2,3.2,0,0,1-3.2-3.2V161.7H29.6A21.133,21.133,0,0,1,8.52,140.619v-48.9A21.132,21.132,0,0,1,29.6,70.64h81.012a21.132,21.132,0,0,1,21.079,21.079v11.675c0,4.207-6.4,4.207-6.4,0V91.719a14.735,14.735,0,0,0-14.682-14.682H29.6A14.734,14.734,0,0,0,14.918,91.719v48.9A14.734,14.734,0,0,0,29.6,155.3h75ZM69.939,100.791c-4.207,0-4.207-6.4,0-6.4h35.479c4.207,0,4.207,6.4,0,6.4ZM36.133,142.964c-4.207,0-4.207-6.4,0-6.4H88.014c4.207,0,4.207,6.4,0,6.4Zm0-13.388c-4.207,0-4.207-6.4,0-6.4H88.014c4.207,0,4.207,6.4,0,6.4Zm33.806-17.405c-4.207,0-4.207-6.4,0-6.4H87.678c4.207,0,4.207,6.4,0,6.4ZM34.8,89.374H56.217a3.2,3.2,0,0,1,3.2,3.2v21.421a3.2,3.2,0,0,1-3.2,3.2H34.8a3.2,3.2,0,0,1-3.2-3.2V92.572A3.2,3.2,0,0,1,34.8,89.374Zm18.221,6.4H37.994V110.8H53.017ZM80.63,161.7H59.582v11.377H80.63Zm49.479-19.545,5.686,7.2c2.6,3.283-2.4,7.231-5,3.948l-5.686-7.2a17.687,17.687,0,1,1,5-3.95Zm-13.263-22.927A11.264,11.264,0,1,0,128.11,130.49,11.264,11.264,0,0,0,116.846,119.225Z" fill="#fcc122"/>
      </g>
    </g>
  </g>
</svg>
