<svg xmlns="http://www.w3.org/2000/svg" width="89.223" height="89.223" viewBox="0 0 89.223 89.223">
  <g id="_4698906_arrow_back_backward_direction_left_icon" data-name="4698906_arrow_back_backward_direction_left_icon" transform="translate(-0.36 -0.36)">
    <path id="Path_35" data-name="Path 35" d="M41.612,0A41.612,41.612,0,1,1,0,41.612,41.612,41.612,0,0,1,41.612,0Z" transform="translate(3.36 3.36)" fill="#21364a" stroke="#fcc122" stroke-width="6"/>
    <line id="Line_30" data-name="Line 30" y2="23.164" transform="translate(23.806 33.834)" fill="none" stroke="#fcc122" stroke-linecap="round" stroke-linejoin="round" stroke-width="2"/>
    <path id="Path_34" data-name="Path 34" d="M37.338,52.875l15.428-8.9a2.527,2.527,0,0,1,3.791,2.2v5.143l12.622-7.347a2.527,2.527,0,0,1,3.791,2.2V63.953a2.527,2.527,0,0,1-3.791,2.2L56.534,58.84v5.143a2.527,2.527,0,0,1-3.791,2.2l-15.428-8.9a2.527,2.527,0,0,1,.022-4.415Z" transform="translate(-8.668 -10.687)" fill="#fcc122"/>
  </g>
</svg>
