<svg xmlns="http://www.w3.org/2000/svg" width="17.873" height="21.802" viewBox="0 0 17.873 21.802">
  <path id="_9042843_mouse_scroll_wheel_icon" data-name="9042843_mouse_scroll_wheel_icon" d="M12,5l.53-.53a.75.75,0,0,0-1.061,0Zm0,8-.53.53a.75.75,0,0,0,1.061,0ZM9.47,6.47A.75.75,0,0,0,10.53,7.53Zm4,1.061A.75.75,0,0,0,14.53,6.47ZM10.53,10.47A.75.75,0,0,0,9.47,11.53Zm4,1.061A.75.75,0,0,0,13.47,10.47ZM3.25,10v4h1.5V10Zm17.5,4V10h-1.5v4Zm-9.5-9v8h1.5V5Zm.22-.53-2,2L10.53,7.53l2-2Zm0,1.061,2,2L14.53,6.47l-2-2ZM12.53,12.47l-2-2L9.47,11.53l2,2Zm0,1.061,2-2L13.47,10.47l-2,2ZM20.75,10A8.75,8.75,0,0,0,12,1.25v1.5A7.25,7.25,0,0,1,19.25,10ZM12,22.75A8.75,8.75,0,0,0,20.75,14h-1.5A7.25,7.25,0,0,1,12,21.25ZM3.25,14A8.75,8.75,0,0,0,12,22.75v-1.5A7.25,7.25,0,0,1,4.75,14Zm1.5-4A7.25,7.25,0,0,1,12,2.75V1.25A8.75,8.75,0,0,0,3.25,10Z" transform="matrix(1, -0.017, 0.017, 1, -3.271, -0.888)" fill="#21364a"/>
</svg>
