<?xml version="1.0" ?><svg data-name="Layer 1" id="Layer_1" viewBox="0 0 512 512" xmlns="http://www.w3.org/2000/svg"><title/><path d="M264.66,173.63H247.35a29.7,29.7,0,0,0-29.67,29.67v32.24a29.7,29.7,0,0,0,29.67,29.66h17.31a29.71,29.71,0,0,0,29.68-29.66V203.3A29.71,29.71,0,0,0,264.66,173.63Zm17.49,61.91A17.5,17.5,0,0,1,264.66,253H247.35a17.49,17.49,0,0,1-17.48-17.47V203.3a17.49,17.49,0,0,1,17.48-17.48h17.31a17.5,17.5,0,0,1,17.49,17.48Z"/><path d="M489.22,222.79l-56.59-3.72a178.61,178.61,0,0,0-25.57-61.89l37.35-42.6a6.09,6.09,0,0,0-.27-8.32L405.77,67.88a6.1,6.1,0,0,0-8.33-.28L354.82,105a178.22,178.22,0,0,0-61.88-25.59l-3.73-56.58a6.09,6.09,0,0,0-6.08-5.7H228.87a6.09,6.09,0,0,0-6.08,5.7l-3.71,56.59A178,178,0,0,0,157.19,105L114.57,67.6a6.1,6.1,0,0,0-8.33.28L67.88,106.26a6.09,6.09,0,0,0-.27,8.32L105,157.18a178.32,178.32,0,0,0-25.6,61.89l-56.58,3.72a6.09,6.09,0,0,0-5.69,6.08v54.26a6.1,6.1,0,0,0,5.69,6.08l56.58,3.73A178.32,178.32,0,0,0,105,354.83L67.61,397.44a6.11,6.11,0,0,0,.27,8.33l38.36,38.36a6.12,6.12,0,0,0,8.33.27l42.61-37.35a178.37,178.37,0,0,0,61.9,25.6l3.71,56.56a6.09,6.09,0,0,0,6.08,5.7h54.26a6.09,6.09,0,0,0,6.08-5.7l3.73-56.56a178.43,178.43,0,0,0,61.88-25.6l42.62,37.35a6.12,6.12,0,0,0,8.33-.27l38.37-38.36a6.11,6.11,0,0,0,.27-8.33l-37.35-42.62a178.4,178.4,0,0,0,25.57-61.88l56.59-3.73a6.1,6.1,0,0,0,5.69-6.08V228.87A6.09,6.09,0,0,0,489.22,222.79Zm-6.49,54.63-55.59,3.66a6.09,6.09,0,0,0-5.6,5,166.33,166.33,0,0,1-27.16,65.75,6.09,6.09,0,0,0,.41,7.49l36.69,41.86-30.29,30.29-41.86-36.68a6.09,6.09,0,0,0-7.49-.42,166.17,166.17,0,0,1-65.76,27.19,6.05,6.05,0,0,0-5,5.6l-3.67,55.56H234.58l-3.65-55.56a6.07,6.07,0,0,0-5-5.6,166.18,166.18,0,0,1-65.75-27.19,6.07,6.07,0,0,0-7.49.42l-41.86,36.68L80.54,401.18l36.68-41.86a6.07,6.07,0,0,0,.42-7.49,166.16,166.16,0,0,1-27.18-65.75,6.09,6.09,0,0,0-5.61-5l-55.58-3.66V234.58l55.58-3.65a6.12,6.12,0,0,0,5.61-5,166.21,166.21,0,0,1,27.18-65.76,6.08,6.08,0,0,0-.42-7.49L80.54,110.83l30.29-30.29,41.86,36.67a6.09,6.09,0,0,0,7.49.43,166.22,166.22,0,0,1,65.75-27.18,6.09,6.09,0,0,0,5-5.6l3.65-55.58h42.84l3.67,55.57a6.07,6.07,0,0,0,5,5.6,166.61,166.61,0,0,1,65.76,27.19,6.09,6.09,0,0,0,7.49-.43l41.86-36.67,30.29,30.29-36.69,41.85a6.09,6.09,0,0,0-.41,7.49,166.5,166.5,0,0,1,27.16,65.76,6.11,6.11,0,0,0,5.6,5l55.59,3.65Z"/><path d="M256,131.42A124.59,124.59,0,1,0,380.59,256,124.72,124.72,0,0,0,256,131.42ZM204.42,355.76a2.8,2.8,0,0,0,.06-.28v-30a37.16,37.16,0,0,1,37.11-37.13h28.82a37.16,37.16,0,0,1,37.11,37.13v30a2.8,2.8,0,0,0,.06.28,111.56,111.56,0,0,1-103.16,0Zm115.29-7.26v-23a49.37,49.37,0,0,0-49.3-49.32H241.59a49.37,49.37,0,0,0-49.3,49.32v23a112.4,112.4,0,1,1,127.42,0Z"/></svg>