<svg xmlns="http://www.w3.org/2000/svg" width="57.297" height="70.394" viewBox="0 0 57.297 70.394">
  <path id="_9042843_mouse_scroll_wheel_icon_1_" data-name="9042843_mouse_scroll_wheel_icon (1)" d="M31.9,13.528l1.736-1.736a2.455,2.455,0,0,0-3.473,0Zm0,26.193-1.736,1.736a2.455,2.455,0,0,0,3.473,0ZM23.614,18.34a2.456,2.456,0,0,0,3.473,3.473Zm13.1,3.473a2.456,2.456,0,0,0,3.473-3.473Zm-9.624,9.624a2.455,2.455,0,1,0-3.473,3.473Zm13.1,3.473a2.455,2.455,0,0,0-3.473-3.473ZM3.25,29.9V43H8.161V29.9ZM60.547,43V29.9H55.636V43Zm-31.1-29.467V39.721h4.911V13.528Zm.719-1.736L23.614,18.34l3.473,3.473,6.548-6.548Zm0,3.473,6.548,6.548,3.473-3.473-6.548-6.548Zm3.473,22.72-6.548-6.548-3.473,3.473,6.548,6.548Zm0,3.473,6.548-6.548-3.473-3.473-6.548,6.548ZM60.547,29.9A28.649,28.649,0,0,0,31.9,1.25V6.161A23.737,23.737,0,0,1,55.636,29.9ZM31.9,71.644A28.649,28.649,0,0,0,60.547,43H55.636A23.737,23.737,0,0,1,31.9,66.733ZM3.25,43A28.649,28.649,0,0,0,31.9,71.644V66.733A23.737,23.737,0,0,1,8.161,43ZM8.161,29.9A23.737,23.737,0,0,1,31.9,6.161V1.25A28.649,28.649,0,0,0,3.25,29.9Z" transform="translate(-3.25 -1.25)" fill="#fcc122"/>
</svg>
